<svg width="27" height="25" viewBox="0 0 27 25" fill="none" xmlns="http://www.w3.org/2000/svg">
<path d="M18.4827 16.169L17.8361 16.8006C17.8361 16.8006 16.2971 18.3007 12.0979 14.2046C7.89864 10.1084 9.43765 8.60818 9.43765 8.60818L9.84407 8.20944C10.8488 7.2307 10.944 5.65803 10.0672 4.5092L8.27664 2.16274C7.19096 0.740643 5.0949 0.552424 3.85148 1.76539L1.62042 3.94036C1.0051 4.54266 0.592993 5.32063 0.64273 6.18504C0.770625 8.39766 1.79094 13.1561 7.48085 18.7079C13.5161 24.5942 19.179 24.8284 21.4939 24.6165C22.2272 24.5496 22.8638 24.1843 23.3768 23.6824L25.3947 21.7138C26.7589 20.3851 26.3752 18.1056 24.6302 17.1756L21.9159 15.727C20.7706 15.1178 19.3779 15.2962 18.4827 16.169Z" fill="white"/>
</svg>
